<svg width="42" height="41" viewBox="0 0 42 41" fill="none" xmlns="http://www.w3.org/2000/svg">
<path d="M41.4119 20.5079C41.4119 31.7997 32.1121 41 20.6979 41C9.29976 41 0 31.7997 0 20.5079C0 9.23166 9.29976 0.0314331 20.6979 0.0314331C32.1121 0.0314331 41.4119 9.23166 41.4119 20.5079ZM20.7615 11.1503V16.0099H10.7305C9.06132 16.0099 8.12338 16.9221 8.12338 18.542V22.5365C8.12338 24.1407 9.06132 25.0528 10.7305 25.0528H20.7615V29.9283C20.7615 30.6674 21.2862 31.1863 22.0015 31.1863C22.5421 31.1863 22.9712 30.9506 23.4641 30.5101L32.875 21.7659C33.3678 21.3099 33.4951 20.8696 33.4951 20.5079C33.4951 20.1462 33.3678 19.7215 32.875 19.2496L23.4641 10.5842C22.9235 10.0652 22.5579 9.845 22.0492 9.845C21.2862 9.845 20.7615 10.4269 20.7615 11.1503Z" fill="white" fill-opacity="0.85"/>
</svg>
