<svg width="140" height="140" viewBox="0 0 140 140" fill="none" xmlns="http://www.w3.org/2000/svg">
<path d="M33.346 139.625H42.2193C45.845 139.625 48.1349 137.287 48.1349 133.566V124.931C48.1349 121.21 45.845 118.873 42.2193 118.873H33.346C29.6726 118.873 27.3828 121.21 27.3828 124.931V133.566C27.3828 137.287 29.6726 139.625 33.346 139.625ZM34.9203 133.471C34.0139 133.471 33.5368 132.946 33.5368 132.088V126.458C33.5368 125.552 34.0139 125.027 34.9203 125.027H40.6927C41.5037 125.027 41.9808 125.552 41.9808 126.458V132.088C41.9808 132.946 41.5037 133.471 40.6927 133.471H34.9203ZM33.5845 120.018H41.79C42.5055 101.222 49.0412 84.7154 60.252 71.024L54.2414 65.8238C41.5514 81.2328 34.3001 98.8841 33.5845 120.018ZM124.798 47.791H133.671C137.345 47.791 139.635 45.5011 139.635 41.7323V33.0975C139.635 29.3765 137.345 27.0389 133.671 27.0389H124.798C121.172 27.0389 118.883 29.3765 118.883 33.0975V41.7323C118.883 45.5011 121.172 47.791 124.798 47.791ZM126.373 41.6369C125.514 41.6369 125.037 41.1121 125.037 40.2534V34.6241C125.037 33.7654 125.514 33.193 126.373 33.193H132.145C133.004 33.193 133.481 33.7654 133.481 34.6241V40.2534C133.481 41.1121 133.004 41.6369 132.145 41.6369H126.373ZM68.6959 51.7503L72.7989 58.7155C86.1567 48.268 101.995 42.3525 120.075 41.7323V33.5269C100.182 34.1471 83.5803 40.3966 68.6959 51.7503ZM54.1457 69.3542L49.4228 64.965L6.48758 107.805L11.0674 112.385L54.1457 69.3542ZM66.0721 48.2203L70.7476 52.6091L111.345 12.1069L106.765 7.52715L66.0721 48.2203ZM109.771 16.3051C114.064 16.3051 117.499 12.8702 117.499 8.57671C117.499 4.28315 114.064 0.848328 109.771 0.848328C105.477 0.848328 101.995 4.28315 101.995 8.57671C101.995 12.8702 105.477 16.3051 109.771 16.3051ZM8.06185 119.111C12.3554 119.111 15.8379 115.629 15.8379 111.383C15.8379 107.09 12.3554 103.607 8.06185 103.607C3.81603 103.607 0.333496 107.09 0.333496 111.383C0.333496 115.629 3.81603 119.111 8.06185 119.111ZM61.3492 75.2217C69.6026 75.2217 76.3767 68.4954 76.3767 60.2421C76.3767 51.9892 69.6026 45.2149 61.3492 45.2149C53.0963 45.2149 46.3697 51.9892 46.3697 60.2421C46.3697 68.4954 53.0963 75.2217 61.3492 75.2217ZM61.3492 68.1139C57.0083 68.1139 53.4779 64.5835 53.4779 60.2421C53.4779 55.8533 57.0083 52.3229 61.3492 52.3229C65.7385 52.3229 69.2684 55.8533 69.2684 60.2421C69.2684 64.5835 65.7385 68.1139 61.3492 68.1139Z" fill="white" fill-opacity="0.85"/>
</svg>
