<svg width="142" height="140" viewBox="0 0 142 140" fill="none" xmlns="http://www.w3.org/2000/svg">
<path d="M69.7392 14.0163C73.4995 14.0163 76.5412 11.0298 76.5412 7.26911C76.5412 3.45312 73.4995 0.466675 69.7392 0.466675C65.9783 0.466675 62.9366 3.45312 62.9366 7.26911C62.9366 11.0298 65.9783 14.0163 69.7392 14.0163ZM114.259 32.4326C118.075 32.4326 121.062 29.4462 121.062 25.6302C121.062 21.8695 118.075 18.8278 114.259 18.8278C110.498 18.8278 107.512 21.8695 107.512 25.6302C107.512 29.4462 110.498 32.4326 114.259 32.4326ZM132.675 76.953C136.492 76.953 139.478 73.9662 139.478 70.2059C139.478 66.3895 136.492 63.4033 132.675 63.4033C128.915 63.4033 125.873 66.3895 125.873 70.2059C125.873 73.9662 128.915 76.953 132.675 76.953ZM114.259 121.528C118.075 121.528 121.062 118.486 121.062 114.726C121.062 110.965 118.075 107.923 114.259 107.923C110.498 107.923 107.512 110.965 107.512 114.726C107.512 118.486 110.498 121.528 114.259 121.528ZM69.7392 139.945C73.4995 139.945 76.5412 136.903 76.5412 133.142C76.5412 129.326 73.4995 126.34 69.7392 126.34C65.9783 126.34 62.9366 129.326 62.9366 133.142C62.9366 136.903 65.9783 139.945 69.7392 139.945ZM25.2188 121.528C28.9796 121.528 31.966 118.486 31.966 114.726C31.966 110.965 28.9796 107.923 25.2188 107.923C21.4028 107.923 18.4164 110.965 18.4164 114.726C18.4164 118.486 21.4028 121.528 25.2188 121.528ZM6.80244 76.953C10.5631 76.953 13.6049 73.9662 13.6049 70.2059C13.6049 66.3895 10.5631 63.4033 6.80244 63.4033C2.98644 63.4033 0 66.3895 0 70.2059C0 73.9662 2.98644 76.953 6.80244 76.953ZM25.2188 32.4326C28.9796 32.4326 31.966 29.4462 31.966 25.6302C31.966 21.8695 28.9796 18.8278 25.2188 18.8278C21.4028 18.8278 18.4164 21.8695 18.4164 25.6302C18.4164 29.4462 21.4028 32.4326 25.2188 32.4326Z" fill="white" fill-opacity="0.85"/>
<path d="M69.7389 105.767C89.3714 105.767 105.355 89.8385 105.355 70.2059C105.355 50.5726 89.3714 34.5896 69.7389 34.5896C50.1056 34.5896 34.1226 50.5726 34.1226 70.2059C34.1226 89.8385 50.1056 105.767 69.7389 105.767ZM69.7389 96.4752C55.1935 96.4752 43.469 84.7507 43.469 70.2059C43.469 55.6053 55.1935 43.8808 69.7389 43.8808C84.2836 43.8808 96.0081 55.6053 96.0081 70.2059C96.0081 84.7507 84.2836 96.4752 69.7389 96.4752Z" fill="white" fill-opacity="0.85"/>
</svg>
